<svg width="923" height="263" viewBox="0 0 923 263" fill="none" xmlns="http://www.w3.org/2000/svg">
<g clip-path="url(#clip0_605_17)">
<rect width="923" height="263" fill="white"/>
<ellipse cx="32.5" cy="50" rx="74.5" ry="71" fill="#FFC947" fill-opacity="0.5"/>
<ellipse cx="89.5" cy="265" rx="74.5" ry="71" fill="#185ADB" fill-opacity="0.3"/>
<ellipse cx="586.5" cy="2" rx="74.5" ry="71" fill="#185ADB" fill-opacity="0.3"/>
<ellipse cx="875.5" cy="225" rx="74.5" ry="71" fill="#FFC947" fill-opacity="0.5"/>
<ellipse cx="761.5" cy="41.5" rx="25.5" ry="23.5" fill="#FFC947" fill-opacity="0.5"/>
<circle cx="743.5" cy="80.5" r="7.5" fill="#FFC947" fill-opacity="0.5"/>
<path d="M402.928 108.976C410.544 108.976 416.144 110.928 419.728 114.832C423.376 118.736 425.2 123.856 425.2 130.192C425.2 134.544 424.176 138.32 422.128 141.52C420.144 144.72 417.424 147.216 413.968 149.008C410.512 150.736 406.608 151.6 402.256 151.6C400.208 151.6 398.032 151.376 395.728 150.928C393.488 150.48 391.152 149.616 388.72 148.336L389.2 147.088C389.712 148.688 390.128 150.672 390.448 153.04C390.832 155.344 391.12 157.744 391.312 160.24C391.568 162.672 391.696 164.912 391.696 166.96C391.696 170.736 391.056 173.648 389.776 175.696C388.56 177.68 386.736 178.672 384.304 178.672C382.256 178.672 380.624 178.032 379.408 176.752C378.256 175.472 377.456 173.36 377.008 170.416C376.56 167.472 376.336 163.536 376.336 158.608C376.336 149.136 376.752 141.072 377.584 134.416C378.48 127.696 379.984 122.416 382.096 118.576C383.76 115.632 386.32 113.296 389.776 111.568C393.296 109.84 397.68 108.976 402.928 108.976ZM401.104 140.272C404.944 140.272 408.048 139.248 410.416 137.2C412.848 135.152 414.064 132.176 414.064 128.272C414.064 125.712 413.2 123.6 411.472 121.936C409.808 120.208 407.184 119.344 403.6 119.344C400.976 119.344 398.704 119.952 396.784 121.168C394.864 122.32 393.392 123.952 392.368 126.064C391.408 128.112 390.928 130.48 390.928 133.168C390.928 135.664 391.728 137.488 393.328 138.64C394.992 139.728 397.584 140.272 401.104 140.272ZM475.371 178.96C473.195 178.96 471.691 178.128 470.859 176.464C470.091 174.736 469.643 172.016 469.515 168.304L470.475 168.784C466.891 175.76 460.107 179.248 450.123 179.248C445.579 179.248 441.803 178.448 438.795 176.848C435.787 175.184 433.547 173.008 432.075 170.32C430.667 167.568 429.963 164.592 429.963 161.392C429.963 155.888 431.883 151.536 435.723 148.336C439.563 145.072 444.651 143.44 450.987 143.44C455.147 143.44 458.763 144.048 461.835 145.264C464.907 146.48 467.531 148.176 469.707 150.352L468.075 150.16C467.627 143.696 466.219 139.088 463.851 136.336C461.547 133.52 458.251 132.112 453.963 132.112C451.467 132.112 449.163 132.496 447.051 133.264C444.939 134.032 442.987 134.832 441.195 135.664C439.467 136.432 437.835 136.816 436.299 136.816C434.763 136.816 433.547 136.304 432.651 135.28C431.819 134.256 431.403 132.944 431.403 131.344C431.403 129.04 432.491 126.864 434.667 124.816C436.907 122.768 439.851 121.104 443.499 119.824C447.147 118.544 451.115 117.904 455.403 117.904C460.587 117.904 465.035 119.152 468.747 121.648C472.459 124.144 475.275 127.792 477.195 132.592C478.859 136.688 480.043 141.264 480.747 146.32C481.451 151.376 481.802 156.784 481.802 162.544C481.802 166.896 481.579 170.256 481.131 172.624C480.683 174.992 479.979 176.656 479.019 177.616C478.123 178.512 476.907 178.96 475.371 178.96ZM454.155 168.208C456.267 168.208 458.411 167.92 460.587 167.344C462.763 166.704 464.587 165.776 466.059 164.56C467.531 163.344 468.267 161.84 468.267 160.048C468.267 158.512 467.627 157.264 466.347 156.304C465.131 155.28 463.499 154.512 461.451 154C459.467 153.488 457.323 153.232 455.019 153.232C451.115 153.232 448.139 153.904 446.091 155.248C444.107 156.592 443.115 158.384 443.115 160.624C443.115 163.056 444.043 164.944 445.899 166.288C447.819 167.568 450.571 168.208 454.155 168.208ZM506.83 120.208H504.91C504.718 117.392 504.782 114.736 505.102 112.24C505.422 109.68 506.094 107.632 507.118 106.096C508.206 104.496 509.742 103.696 511.726 103.696C513.518 103.696 514.83 104.272 515.662 105.424C516.494 106.576 516.91 108.176 516.91 110.224C516.91 114.256 516.142 117.712 514.606 120.592L512.878 120.4C516.334 119.184 520.238 118.576 524.59 118.576C527.342 118.576 529.518 119.12 531.118 120.208C532.782 121.232 533.614 122.992 533.614 125.488C533.614 127.856 532.654 129.648 530.734 130.864C528.814 132.08 526.414 132.688 523.534 132.688C521.806 132.688 519.95 132.624 517.966 132.496C516.046 132.304 514.158 132.016 512.302 131.632L513.934 129.616C514.51 132.048 515.054 134.832 515.566 137.968C516.142 141.04 516.654 144.24 517.102 147.568C517.55 150.896 517.902 154.128 518.158 157.264C518.414 160.4 518.542 163.216 518.542 165.712C518.542 169.808 517.902 173.04 516.622 175.408C515.342 177.776 513.454 178.96 510.958 178.96C508.974 178.96 507.406 178.352 506.254 177.136C505.166 175.92 504.366 174.384 503.854 172.528C503.406 170.608 503.118 168.624 502.99 166.576C502.926 164.528 502.894 162.672 502.894 161.008C502.894 158.192 503.022 155.024 503.278 151.504C503.534 147.92 503.886 144.24 504.334 140.464C504.846 136.688 505.422 133.04 506.062 129.52L507.982 131.152C504.718 132.816 500.686 133.648 495.886 133.648C492.942 133.648 490.67 133.104 489.07 132.016C487.47 130.928 486.67 129.232 486.67 126.928C486.67 124.432 487.566 122.512 489.358 121.168C491.15 119.76 493.55 119.056 496.558 119.056C498.542 119.056 500.398 119.184 502.126 119.44C503.918 119.632 505.486 119.888 506.83 120.208ZM549.867 104.368C552.427 104.368 554.251 105.072 555.339 106.48C556.491 107.888 557.067 109.52 557.067 111.376C557.067 113.68 556.363 115.472 554.955 116.752C553.611 117.968 551.691 118.576 549.195 118.576C546.763 118.576 544.939 117.904 543.723 116.56C542.507 115.152 541.898 113.52 541.898 111.664C541.898 109.232 542.635 107.408 544.107 106.192C545.579 104.976 547.499 104.368 549.867 104.368ZM550.443 125.776C552.491 125.776 554.091 127.696 555.243 131.536C556.459 135.376 557.067 141.488 557.067 149.872C557.067 160.176 556.331 167.6 554.859 172.144C553.387 176.688 551.147 178.96 548.139 178.96C545.835 178.96 544.139 177.296 543.051 173.968C541.963 170.576 541.419 164.688 541.419 156.304C541.419 146 542.251 138.352 543.915 133.36C545.643 128.304 547.819 125.776 550.443 125.776ZM585.018 120.208H583.098C582.906 117.392 582.97 114.736 583.29 112.24C583.61 109.68 584.282 107.632 585.306 106.096C586.394 104.496 587.93 103.696 589.914 103.696C591.706 103.696 593.018 104.272 593.85 105.424C594.682 106.576 595.098 108.176 595.098 110.224C595.098 114.256 594.33 117.712 592.794 120.592L591.066 120.4C594.522 119.184 598.426 118.576 602.778 118.576C605.53 118.576 607.706 119.12 609.306 120.208C610.97 121.232 611.802 122.992 611.802 125.488C611.802 127.856 610.842 129.648 608.922 130.864C607.002 132.08 604.602 132.688 601.722 132.688C599.994 132.688 598.138 132.624 596.154 132.496C594.234 132.304 592.346 132.016 590.49 131.632L592.122 129.616C592.698 132.048 593.242 134.832 593.754 137.968C594.33 141.04 594.842 144.24 595.29 147.568C595.738 150.896 596.09 154.128 596.346 157.264C596.602 160.4 596.73 163.216 596.73 165.712C596.73 169.808 596.09 173.04 594.81 175.408C593.53 177.776 591.642 178.96 589.146 178.96C587.162 178.96 585.594 178.352 584.442 177.136C583.354 175.92 582.554 174.384 582.042 172.528C581.594 170.608 581.306 168.624 581.178 166.576C581.114 164.528 581.082 162.672 581.082 161.008C581.082 158.192 581.21 155.024 581.466 151.504C581.722 147.92 582.074 144.24 582.522 140.464C583.034 136.688 583.61 133.04 584.25 129.52L586.17 131.152C582.906 132.816 578.874 133.648 574.074 133.648C571.13 133.648 568.858 133.104 567.258 132.016C565.658 130.928 564.858 129.232 564.858 126.928C564.858 124.432 565.754 122.512 567.546 121.168C569.338 119.76 571.738 119.056 574.746 119.056C576.73 119.056 578.586 119.184 580.314 119.44C582.106 119.632 583.674 119.888 585.018 120.208ZM661.558 178.96C659.382 178.96 657.878 178.128 657.046 176.464C656.278 174.736 655.83 172.016 655.702 168.304L656.662 168.784C653.078 175.76 646.294 179.248 636.31 179.248C631.766 179.248 627.99 178.448 624.982 176.848C621.974 175.184 619.734 173.008 618.262 170.32C616.854 167.568 616.15 164.592 616.15 161.392C616.15 155.888 618.07 151.536 621.91 148.336C625.75 145.072 630.838 143.44 637.174 143.44C641.334 143.44 644.95 144.048 648.022 145.264C651.094 146.48 653.718 148.176 655.894 150.352L654.262 150.16C653.814 143.696 652.406 139.088 650.038 136.336C647.734 133.52 644.438 132.112 640.15 132.112C637.654 132.112 635.35 132.496 633.238 133.264C631.126 134.032 629.174 134.832 627.382 135.664C625.654 136.432 624.022 136.816 622.486 136.816C620.95 136.816 619.734 136.304 618.838 135.28C618.006 134.256 617.59 132.944 617.59 131.344C617.59 129.04 618.678 126.864 620.854 124.816C623.094 122.768 626.038 121.104 629.686 119.824C633.334 118.544 637.302 117.904 641.59 117.904C646.774 117.904 651.222 119.152 654.934 121.648C658.646 124.144 661.462 127.792 663.382 132.592C665.046 136.688 666.23 141.264 666.934 146.32C667.638 151.376 667.99 156.784 667.99 162.544C667.99 166.896 667.766 170.256 667.318 172.624C666.87 174.992 666.166 176.656 665.206 177.616C664.31 178.512 663.094 178.96 661.558 178.96ZM640.342 168.208C642.454 168.208 644.598 167.92 646.774 167.344C648.95 166.704 650.774 165.776 652.246 164.56C653.718 163.344 654.454 161.84 654.454 160.048C654.454 158.512 653.814 157.264 652.534 156.304C651.318 155.28 649.686 154.512 647.638 154C645.654 153.488 643.51 153.232 641.206 153.232C637.302 153.232 634.326 153.904 632.278 155.248C630.294 156.592 629.302 158.384 629.302 160.624C629.302 163.056 630.23 164.944 632.086 166.288C634.006 167.568 636.758 168.208 640.342 168.208ZM703.988 117.904C709.684 117.904 713.78 118.736 716.276 120.4C718.772 122.064 720.02 124.208 720.02 126.832C720.02 128.368 719.476 129.648 718.388 130.672C717.364 131.632 715.892 132.112 713.972 132.112C711.988 132.112 709.908 131.824 707.732 131.248C705.62 130.672 703.156 130.384 700.34 130.384C697.076 130.384 694.644 131.024 693.044 132.304C691.444 133.584 690.644 135.216 690.644 137.2C690.644 139.056 691.348 140.528 692.756 141.616C694.228 142.64 697.012 143.408 701.108 143.92C705.652 144.432 709.396 145.264 712.34 146.416C715.348 147.504 717.588 149.168 719.06 151.408C720.532 153.584 721.268 156.592 721.268 160.432C721.268 166.512 719.124 171.024 714.836 173.968C710.548 176.912 704.628 178.384 697.076 178.384C692.276 178.384 688.468 178 685.652 177.232C682.836 176.464 680.788 175.376 679.508 173.968C678.292 172.56 677.684 170.896 677.684 168.976C677.684 167.312 678.228 166.032 679.316 165.136C680.468 164.176 681.812 163.696 683.348 163.696C684.82 163.696 686.388 163.888 688.052 164.272C689.716 164.592 691.476 164.944 693.332 165.328C695.188 165.712 697.108 165.904 699.092 165.904C705.492 165.904 708.692 163.92 708.692 159.952C708.692 158.608 708.372 157.52 707.732 156.688C707.092 155.856 705.94 155.184 704.276 154.672C702.612 154.096 700.18 153.648 696.98 153.328C693.14 152.944 689.812 152.304 686.996 151.408C684.18 150.448 682.004 148.912 680.468 146.8C678.932 144.624 678.164 141.648 678.164 137.872C678.164 131.92 680.404 127.12 684.884 123.472C689.364 119.76 695.732 117.904 703.988 117.904Z" fill="#FFC947"/>
<path d="M357.668 117.995C356.15 115.753 354.169 113.825 351.844 112.327C349.519 110.828 346.897 109.79 344.137 109.275C340.51 108.671 336.778 109.017 333.344 110.275C336.283 101.275 335.797 92.2746 331.97 85.4046C330.71 83.0383 328.952 80.94 326.806 79.2378C324.659 77.5356 322.169 76.2654 319.486 75.5046C311.515 73.3346 302.931 76.2446 296.229 82.5546C295.296 80.263 294.029 78.1056 292.466 76.1446C290.813 73.9911 288.719 72.1735 286.31 70.7993C283.9 69.4251 281.224 68.5224 278.439 68.1446C265.045 66.5546 252.54 78.2446 249.897 94.7946C247.117 92.8081 243.838 91.5399 240.383 91.1146C226.937 89.5146 214.389 101.295 211.842 117.945C210.372 127.495 212.455 136.615 217.571 142.945C218.586 144.198 219.738 145.348 221.007 146.375C217.375 150.329 214.933 155.133 213.935 160.285C212.043 168.605 213.1 175.145 217.159 180.285C224.009 188.895 236.313 189.805 250.436 190.805C258.061 191.219 265.656 192.037 273.185 193.255C280.293 194.616 287.321 196.325 294.242 198.375C303.428 200.935 311.843 203.275 319.242 203.275C323.93 203.425 328.545 202.153 332.414 199.645C337.921 195.945 340.923 189.885 341.346 181.645C341.663 177.123 341.307 172.582 340.289 168.155C350.184 165.595 358.799 156.155 361.674 143.405C363.809 133.885 362.351 124.635 357.668 117.995Z" fill="#185ADB"/>
<path d="M313.217 139.935C310.754 126.675 301.589 127.185 294.19 127.595C292.113 127.796 290.019 127.796 287.942 127.595C285.779 127.172 283.657 126.576 281.6 125.815C275.743 123.885 269.115 121.685 263.46 124.565C259.369 126.655 256.494 131.075 254.654 138.075C253.037 144.235 248.016 145.335 242.202 146.605C235.014 148.175 226.853 149.955 224.083 162.185C222.846 167.665 223.322 171.685 225.531 174.475C229.591 179.605 239.274 180.285 251.462 181.145C259.449 181.583 267.404 182.448 275.289 183.735C282.739 185.156 290.106 186.941 297.361 189.085C306.093 191.515 313.609 193.605 319.401 193.605C322.036 193.731 324.646 193.074 326.864 191.725C329.761 189.725 331.304 186.265 331.579 181.005C332.277 167.325 327.742 162.665 322.943 157.725C319.053 153.675 314.993 149.495 313.217 139.935Z" fill="white"/>
<path d="M233.216 141.345C233.612 141.393 234.011 141.416 234.411 141.415C241.81 141.415 248.914 133.295 250.563 122.585C251.62 115.655 250.225 108.955 246.789 104.685C245.941 103.542 244.857 102.574 243.601 101.84C242.345 101.106 240.945 100.621 239.485 100.415C231.652 99.4747 223.872 107.895 222.127 119.175C221.07 126.115 222.476 132.805 225.912 137.075C226.759 138.218 227.843 139.187 229.099 139.921C230.355 140.655 231.756 141.14 233.216 141.345V141.345Z" fill="white"/>
<path d="M271.198 118.375C271.594 118.423 271.993 118.446 272.392 118.445C279.792 118.445 286.906 110.325 288.555 99.6146C289.612 92.6846 288.206 85.9846 284.771 81.7146C283.932 80.5786 282.859 79.6148 281.617 78.881C280.374 78.1472 278.988 77.6586 277.54 77.4446C269.707 76.5046 261.927 84.9246 260.193 96.2046C259.136 103.145 260.532 109.835 263.967 114.105C264.807 115.24 265.88 116.203 267.122 116.937C268.365 117.67 269.751 118.16 271.198 118.375V118.375Z" fill="white"/>
<path d="M349.613 123.125C348.849 121.941 347.837 120.919 346.638 120.121C345.44 119.323 344.082 118.766 342.647 118.485C334.898 117.115 326.547 125.095 324.021 136.255C322.456 143.135 323.407 149.895 326.547 154.355C327.313 155.534 328.325 156.553 329.521 157.351C330.717 158.148 332.071 158.708 333.503 158.995C334.078 159.094 334.662 159.144 335.247 159.145C342.467 159.145 349.803 151.545 352.16 141.215C353.651 134.345 352.752 127.575 349.613 123.125Z" fill="white"/>
<path d="M303.291 123.935C304.158 124.166 305.054 124.284 305.955 124.285C312.889 124.285 320.511 117.555 323.926 107.925C326.283 101.205 326.114 94.3746 323.482 89.6546C322.856 88.4241 321.97 87.328 320.879 86.4336C319.788 85.5393 318.515 84.8658 317.139 84.4546C309.591 82.4546 300.352 89.5846 296.547 100.455C294.2 107.185 294.369 114.015 297.001 118.735C297.621 119.96 298.499 121.053 299.58 121.947C300.662 122.841 301.924 123.518 303.291 123.935V123.935Z" fill="white"/>
<path d="M272.487 173.705C275.726 172.237 278.32 169.744 279.822 166.658C281.324 163.572 281.638 160.087 280.712 156.805V156.805C280.191 154.953 279.288 153.217 278.055 151.697C276.822 150.176 275.283 148.902 273.527 147.946C271.772 146.991 269.834 146.373 267.824 146.129C265.815 145.885 263.775 146.02 261.821 146.525C261.219 146.677 260.629 146.871 260.056 147.105C259.018 144.537 257.23 142.301 254.901 140.657C252.571 139.013 249.796 138.03 246.899 137.82C244.001 137.61 241.1 138.184 238.534 139.474C235.967 140.763 233.841 142.716 232.402 145.105C232.202 145.445 232.022 145.795 231.853 146.105C231.514 145.885 231.162 145.675 230.796 145.475C228.19 144.06 225.203 143.401 222.204 143.578C219.206 143.755 216.329 144.761 213.929 146.472C211.53 148.182 209.715 150.521 208.709 153.199C207.702 155.877 207.549 158.775 208.269 161.535C207.941 161.595 207.614 161.655 207.286 161.735C203.7 162.675 200.596 164.812 198.546 167.75C196.497 170.689 195.641 174.229 196.138 177.718C196.634 181.206 198.448 184.407 201.246 186.728C204.043 189.049 207.635 190.334 211.356 190.345C211.854 190.343 212.351 190.316 212.846 190.265C212.362 194.643 212.72 199.067 213.903 203.325C215.51 208.925 218.29 212.545 222.36 214.405C224.198 215.303 226.232 215.783 228.301 215.805C232.688 215.805 237.085 214.005 241.367 212.245C244.386 210.938 247.498 209.832 250.68 208.935C253.9 208.174 257.175 207.636 260.479 207.325C267.202 206.535 274.158 205.715 278.069 200.205C280.595 196.625 281.05 192.205 279.432 186.575C278.042 181.892 275.681 177.517 272.487 173.705V173.705Z" fill="#185ADB"/>
<path d="M238.681 167.225C224.347 170.925 217.539 188.705 221.218 201.535C222.275 205.005 223.681 207.135 225.679 208.045C226.522 208.416 227.444 208.601 228.375 208.585C231.134 208.585 234.442 207.235 238.364 205.585C241.709 204.131 245.161 202.908 248.692 201.925C252.269 201.093 255.904 200.505 259.569 200.165C265.288 199.495 269.813 198.965 271.8 196.165C273.037 194.415 273.153 191.885 272.149 188.405C268.428 175.585 253.015 163.545 238.681 167.225Z" fill="white"/>
<path d="M209.294 168.805C207.319 169.326 205.641 170.564 204.625 172.249C203.61 173.935 203.339 175.931 203.871 177.805C204.32 179.361 205.296 180.735 206.65 181.716C208.004 182.697 209.661 183.23 211.366 183.235C212.051 183.235 212.733 183.151 213.396 182.985C215.252 182.364 216.791 181.102 217.703 179.452C218.616 177.802 218.834 175.887 218.315 174.09C217.795 172.294 216.576 170.751 214.903 169.77C213.229 168.79 211.226 168.445 209.294 168.805V168.805Z" fill="white"/>
<path d="M223.195 165.555C223.881 165.557 224.564 165.47 225.225 165.295C226.704 164.906 228.03 164.111 229.034 163.012C230.038 161.912 230.676 160.557 230.868 159.115C231.06 157.674 230.797 156.211 230.113 154.91C229.429 153.609 228.353 152.529 227.022 151.805C226.139 151.326 225.165 151.016 224.156 150.893C223.147 150.771 222.122 150.838 221.14 151.09C220.158 151.343 219.238 151.776 218.434 152.366C217.629 152.955 216.955 153.689 216.451 154.525C215.788 155.645 215.445 156.909 215.455 158.193C215.466 159.477 215.83 160.737 216.512 161.847C217.194 162.957 218.17 163.88 219.343 164.525C220.517 165.17 221.848 165.515 223.206 165.525L223.195 165.555Z" fill="white"/>
<path d="M245.827 159.735C246.51 159.736 247.189 159.649 247.847 159.475C249.326 159.086 250.652 158.291 251.656 157.192C252.66 156.092 253.298 154.737 253.49 153.295C253.682 151.854 253.419 150.391 252.735 149.09C252.051 147.789 250.975 146.709 249.644 145.985C248.762 145.503 247.788 145.191 246.778 145.067C245.768 144.943 244.742 145.009 243.759 145.262C242.777 145.515 241.857 145.949 241.052 146.54C240.248 147.131 239.575 147.867 239.073 148.705C238.406 149.825 238.061 151.09 238.07 152.375C238.079 153.66 238.443 154.92 239.125 156.032C239.808 157.143 240.785 158.066 241.96 158.711C243.136 159.355 244.469 159.697 245.827 159.705V159.735Z" fill="white"/>
<path d="M265.912 167.935C266.598 167.936 267.281 167.849 267.942 167.675C269.421 167.284 270.745 166.489 271.748 165.389C272.751 164.289 273.388 162.933 273.579 161.492C273.77 160.05 273.506 158.588 272.821 157.288C272.136 155.988 271.06 154.908 269.728 154.185C268.846 153.703 267.872 153.391 266.862 153.267C265.853 153.143 264.827 153.209 263.844 153.462C262.861 153.715 261.941 154.149 261.137 154.74C260.333 155.331 259.66 156.067 259.157 156.905C258.494 158.025 258.151 159.289 258.162 160.573C258.173 161.857 258.537 163.117 259.219 164.227C259.9 165.337 260.876 166.26 262.05 166.905C263.224 167.55 264.555 167.895 265.912 167.905V167.935Z" fill="white"/>
</g>
<defs>
<clipPath id="clip0_605_17">
<rect width="923" height="263" fill="white"/>
</clipPath>
</defs>
</svg>
